# xmcd
#
# Track frame offsets: 
#        183
#        10995
#        23523
#        39190
#        57595
#        67450
#        77435
#        93210
#        105493
#        119375
#        129955
#        139050
#        151985
#        175543
#        185430
#        201463
#        213605
#        228225
#        236923
#        252165
#        267555
#        290395
#
# Disc length: 4045 seconds
#
# Revision: 0
# Processed by: cddbd v1.5.2PL0 Copyright (c) Steve Scherf et al.
# Submitted via: ExactAudioCopy v0.99pb5
#
DISCID=340fcb16
DTITLE=Jimmy Powell - The R&B Sensation
DYEAR=1992
DGENRE=R&B
TTITLE0=Sugar Man
TTITLE1=I Can Go Down
TTITLE2=Out Of Time
TTITLE3=House Of The Rising Sun
TTITLE4=Sugar Baby (Part One)
TTITLE5=Ivory
TTITLE6=Captain Man
TTITLE7=Slow Down
TTITLE8=Real Cool
TTITLE9=Nine Live Wire
TTITLE10=Gonna Find A Cave
TTITLE11=Hipster
TTITLE12=Witness To A War
TTITLE13=Strangers On A Train
TTITLE14=Progressive Talking Blues
TTITLE15=Hold On
TTITLE16=Poosevelt and Ira Lee
TTITLE17=I'm A Rocker
TTITLE18=Slow Lovin' Man
TTITLE19=Do You Really Have A Heart
TTITLE20=Messing Around With The Blues
TTITLE21=Back In The USSR
EXTD=
EXTT0=
EXTT1=
EXTT2=
EXTT3=
EXTT4=
EXTT5=
EXTT6=
EXTT7=
EXTT8=
EXTT9=
EXTT10=
EXTT11=
EXTT12=
EXTT13=
EXTT14=
EXTT15=
EXTT16=
EXTT17=
EXTT18=
EXTT19=
EXTT20=
EXTT21=
PLAYORDER=
